# xmcd CD database file
#
# Track frame offsets:
#	150
#	28104
#	39938
#	52542
#	78220
#	98302
#	112817
#	126456
#	139454
#	159582
#	177375
#	200878
#	218568
#	233558
#	244337
#	258502
#	276362
#	293720
#	314530
#
# Disc length: 4445 seconds
#
# Revision: 0
# Processed by: cddbd v1.5.2PL0 Copyright (c) Steve Scherf et al.
# Submitted via: CDex 1.51
#
DISCID=0b115b13
DTITLE=Jazz Émotions - Les Grands Orchestres
DYEAR=2008
DGENRE=Jazz
TTITLE0=The Toshiko ... - Road Time Shuffle
TTITLE1=Duke Ellington - I Got It Bad
TTITLE2=Henry Mancine - Breakfast at Tiffany's
TTITLE3=Quincy Jones - Stockholm Sweetnin'
TTITLE4=Marty Paich - Walkin On Home
TTITLE5=Woody Herman - Early Autumn
TTITLE6=Miles Davis - Boplicity
TTITLE7=Count Basie - One O'Clock Jump
TTITLE8=Shorty Rogers - Swingin' The Plues
TTITLE9=Coleman Hawkins with Many Albam - April In Paris
TTITLE10=Benny Goodman - I Want To Be Happy
TTITLE11=Phineas Newborn, ... - I'm Old-Fashioned
TTITLE12=Lionel hampton - Midnight Sun
TTITLE13=Clare Fisher - Here's That Rainy Day
TTITLE14=Henry mancini - Girl Talk
TTITLE15=Neal Hefti - Lonely Girl
TTITLE16=Johnny Hodges with Oliver Nelson - Black Brown and Beautiful
TTITLE17=Thelonious Montk with Oliver Nelson - Reflections
TTITLE18=Gil Evans - Angel
EXTD=YEAR: 2008
EXTT0=
EXTT1=
EXTT2=
EXTT3=
EXTT4=
EXTT5=
EXTT6=
EXTT7=
EXTT8=
EXTT9=
EXTT10=
EXTT11=
EXTT12=
EXTT13=
EXTT14=
EXTT15=
EXTT16=
EXTT17=
EXTT18=
PLAYORDER=
